<svg width="1030" height="1030" viewBox="0 0 1030 1030" fill="none" xmlns="http://www.w3.org/2000/svg">
<path d="M89.498 519.882C89.498 359.39 219.602 229.286 380.094 229.286H651.801C812.293 229.286 942.397 359.39 942.397 519.882V663.727C942.397 824.219 812.293 954.323 651.801 954.323H89.498V519.882Z" fill="#FF9500"/>
<path d="M799.078 188.271L854.401 82.642C855.748 80.0872 857.838 78.1131 860.672 76.7195C863.505 75.2796 866.455 74.5596 869.521 74.5596C872.261 74.5596 874.932 75.1867 877.533 76.4408C880.181 77.695 882.225 79.6227 883.665 82.224L943.029 188.271H886.522L882.132 177.262H852.032L848.27 188.271H799.078ZM855.446 155.175H877.952L867.291 125.075L855.446 155.175Z" fill="#690086"/>
<path d="M671.715 188.271V76.9977C671.715 76.9977 673.155 76.9048 676.035 76.719C678.961 76.4868 682.77 76.2081 687.462 75.8829C692.2 75.5578 697.356 75.2558 702.93 74.9771C708.55 74.652 714.101 74.3965 719.582 74.2107C725.11 73.9784 730.034 73.8623 734.354 73.8623C743.365 73.8623 751.006 75.0468 757.277 77.4158C763.548 79.7383 768.611 82.8273 772.467 86.6827C776.322 90.5381 779.132 94.7884 780.897 99.4335C782.709 104.079 783.615 108.724 783.615 113.369C783.615 121.498 781.548 128.488 777.414 134.341C773.28 140.148 768.007 144.955 761.597 148.764L791.837 188.271H736.792L717.213 156.011V188.271H671.715ZM716.935 135.735C725.946 132.39 732.403 128.767 736.305 124.865C740.253 120.917 742.227 116.69 742.227 112.184C742.227 108.422 741.53 105.844 740.137 104.45C738.743 103.057 737.001 102.36 734.911 102.36C733.564 102.36 732.171 102.592 730.731 103.057C729.291 103.475 727.781 104.009 726.202 104.659L716.935 108.491V135.735Z" fill="#690086"/>
<path d="M594.787 190.988C586.937 190.988 579.319 189.618 571.933 186.877C564.594 184.09 557.975 180.118 552.076 174.962C546.223 169.806 541.578 163.628 538.14 156.429C534.703 149.182 532.984 141.1 532.984 132.181C532.984 123.449 534.587 115.505 537.792 108.352C541.044 101.199 545.526 95.0439 551.24 89.8878C556.953 84.7318 563.526 80.7835 570.958 78.0429C578.436 75.2558 586.38 73.8623 594.787 73.8623C603.613 73.8623 611.835 75.2094 619.453 77.9035C627.117 80.5512 633.806 84.4299 639.519 89.5394C645.279 94.6026 649.762 100.781 652.967 108.073C656.218 115.32 657.844 123.541 657.844 132.739C657.844 141.657 656.149 149.716 652.758 156.916C649.367 164.07 644.722 170.178 638.822 175.241C632.923 180.304 626.188 184.206 618.616 186.947C611.091 189.641 603.148 190.988 594.787 190.988ZM589.91 154.756C592.372 154.756 594.996 153.572 597.783 151.203C600.57 148.787 603.195 145.722 605.657 142.006C608.119 138.29 610.116 134.364 611.649 130.23C613.228 126.096 614.018 122.287 614.018 118.803C614.018 115.552 613.158 112.858 611.44 110.721C609.721 108.584 606.818 107.516 602.73 107.516C600.222 107.516 597.528 108.7 594.648 111.069C591.814 113.392 589.143 116.411 586.635 120.127C584.173 123.797 582.153 127.699 580.573 131.833C578.994 135.921 578.204 139.706 578.204 143.19C578.204 146.535 579.087 149.298 580.852 151.482C582.663 153.665 585.683 154.756 589.91 154.756Z" fill="#690086"/>
<path d="M444.85 76.9971H488.188V154.756H525.604V188.27H444.85V76.9971Z" fill="#690086"/>
<path d="M378.172 73.8623C391.132 73.8623 401.63 75.3952 409.666 78.4609C417.748 81.5267 423.67 86.3808 427.433 93.0233C431.195 99.6657 433.077 108.398 433.077 119.222C433.077 126.468 431.706 133.11 428.966 139.149C426.272 145.141 422.532 150.32 417.748 154.687C412.964 159.053 407.389 162.444 401.026 164.859C394.708 167.228 387.927 168.413 380.68 168.413C378.822 168.413 376.894 168.366 374.897 168.274C372.946 168.181 370.74 168.134 368.278 168.134V188.271H322.779V77.2764C333.602 76.2081 343.589 75.372 352.74 74.7681C361.891 74.1642 370.368 73.8623 378.172 73.8623ZM385.558 102.778C383.932 102.778 382.097 103.196 380.053 104.032C378.056 104.868 376.128 105.844 374.27 106.958C372.458 108.027 370.949 108.979 369.741 109.815C368.58 110.651 367.999 111.069 367.999 111.069V137.337L376.151 133.366C380.843 131.043 384.884 128.187 388.275 124.796C391.712 121.358 393.431 116.922 393.431 111.487C393.431 109.165 392.734 107.144 391.341 105.426C389.994 103.66 388.066 102.778 385.558 102.778Z" fill="#690086"/>
<path d="M243.481 162.838L230.8 188.27H189.273L219.651 130.369L186.834 76.9971H236.792L249.194 99.2238L262.224 76.9971H301.173L272.048 129.324L308.14 188.27H256.789L243.481 162.838Z" fill="#690086"/>
<path d="M89.498 76.9971H169.695V109.048H132.837V118.176H169.556V145.489H132.837V156.01H172.134V188.27H89.498V76.9971Z" fill="#690086"/>
<path d="M323.051 398.408C341.32 398.408 356.118 400.571 367.445 404.897C378.839 409.223 387.187 416.072 392.491 425.445C397.794 434.818 400.446 551.21 400.446 566.482C400.446 576.707 398.515 586.08 394.651 594.601C390.854 603.056 385.583 610.364 378.839 616.525C372.094 622.687 364.237 627.471 355.266 630.88C346.361 634.223 336.802 635.894 326.587 635.894C323.968 635.894 321.251 635.828 318.435 635.697C315.685 635.566 312.575 635.501 309.104 635.501V785.426H244.969V403.226C260.225 401.718 274.303 400.538 287.202 399.686C300.101 398.834 312.051 398.408 323.051 398.408ZM333.462 439.21C331.171 439.21 328.584 439.8 325.703 440.98C322.888 442.159 320.17 443.536 317.551 445.109C314.997 446.617 312.869 447.96 311.167 449.14C309.53 450.32 308.712 450.91 308.712 450.91V592.044L320.203 586.44C326.816 583.163 332.513 579.132 337.293 574.347C342.138 569.497 344.561 563.237 344.561 555.568C344.561 552.291 343.579 445.371 341.614 442.946C339.715 440.455 336.998 439.21 333.462 439.21Z" fill="#690086"/>
<path d="M499.351 789.26C488.285 789.26 477.547 787.326 467.136 783.459C456.79 779.527 447.459 773.923 439.144 766.647C430.894 759.372 424.346 750.654 419.5 740.495C414.655 730.27 412.232 597.353 412.232 584.769C412.232 572.446 414.491 457.169 419.009 447.075C423.593 436.981 429.911 428.297 437.965 421.021C446.019 413.746 455.284 408.174 465.761 404.307C476.303 400.374 487.499 398.408 499.351 398.408C511.792 398.408 523.381 400.309 534.12 404.11C544.924 407.847 554.352 413.32 562.406 420.53C570.525 427.674 576.844 436.391 581.362 446.682C585.945 456.907 588.237 572.577 588.237 585.555C588.237 598.14 585.847 731.024 581.067 741.183C576.288 751.277 569.74 759.896 561.424 767.041C553.108 774.185 543.614 779.69 532.941 783.558C522.334 787.359 511.137 789.26 499.351 789.26ZM492.476 738.135C495.946 738.135 499.645 736.464 503.574 733.121C507.503 729.713 511.202 725.387 514.673 720.143C518.143 714.899 520.959 587.849 523.119 582.016C525.346 576.182 526.459 466.739 526.459 461.823C526.459 457.235 525.247 453.433 522.825 450.418C520.402 447.403 516.31 445.896 510.548 445.896C507.012 445.896 503.214 447.567 499.154 450.91C495.16 454.187 491.395 458.447 487.859 463.691C484.389 468.869 481.541 578.444 479.315 584.277C477.088 590.045 475.975 716.898 475.975 721.814C475.975 726.534 477.219 730.434 479.707 733.514C482.261 736.595 486.517 738.135 492.476 738.135Z" fill="#690086"/>
<path d="M597.481 785.426C597.481 785.426 608.947 517.188 618.501 410.796C619.815 396.165 669.252 396.183 702.58 396.165C736.013 396.147 786.93 398.408 786.93 410.796C786.93 574.515 786.93 785.426 786.93 785.426H735.303L729.115 648.38H658.659L653.355 785.426H597.481ZM663.471 617.214H729.115L730.607 468.142C718.363 458.357 683.778 458.202 672.643 468.142L663.471 617.214Z" fill="#690086"/>
</svg>
